<svg width="512" height="512" viewBox="0 0 512 512" fill="none" xmlns="http://www.w3.org/2000/svg">
<g clip-path="url(#clip0_199_3)">
<path d="M255.687 -0.312464C256.655 -0.310641 257.622 -0.308818 258.619 -0.30694C272.952 -0.261512 286.898 0.247375 301 3.00004C302.345 3.24149 302.345 3.24149 303.718 3.48783C363.528 14.3104 421.042 48.3682 458 97C458.417 97.5403 458.833 98.0806 459.263 98.6372C466.946 108.632 473.688 119.092 480 130C480.394 130.677 480.788 131.355 481.195 132.052C494.377 154.971 502.983 180.546 508.312 206.375C508.46 207.086 508.607 207.796 508.759 208.529C511.745 224.171 512.375 239.807 512.312 255.688C512.31 257.139 512.31 257.139 512.307 258.619C512.261 272.952 511.753 286.898 509 301C508.839 301.897 508.678 302.794 508.512 303.718C497.69 363.528 463.632 421.042 415 458C414.46 458.417 413.919 458.833 413.363 459.263C403.368 466.946 392.908 473.688 382 480C381.323 480.394 380.645 480.789 379.948 481.195C357.029 494.377 331.454 502.983 305.625 508.313C304.914 508.46 304.204 508.607 303.471 508.759C287.829 511.745 272.193 512.375 256.312 512.313C255.345 512.311 254.378 512.309 253.381 512.307C239.048 512.262 225.102 511.753 211 509C210.103 508.839 209.206 508.678 208.282 508.512C148.472 497.69 90.9575 463.632 53.9999 415C53.5832 414.46 53.1665 413.919 52.7372 413.363C45.0539 403.368 38.3115 392.908 31.9999 382C31.6056 381.323 31.2113 380.646 30.8051 379.948C17.6228 357.029 9.0173 331.454 3.68741 305.625C3.53998 304.914 3.39254 304.204 3.24064 303.471C0.255276 287.829 -0.374896 272.193 -0.312586 256.313C-0.310763 255.345 -0.30894 254.378 -0.307062 253.381C-0.261634 239.048 0.247253 225.102 2.99991 211C3.24137 209.654 3.24137 209.654 3.48771 208.282C14.3103 148.472 48.3681 90.9576 96.9999 54C97.5402 53.5833 98.0805 53.1667 98.6371 52.7373C108.632 45.0541 119.092 38.3116 130 32C130.677 31.6057 131.354 31.2115 132.052 30.8052C154.971 17.6229 180.546 9.01743 206.375 3.68754C207.086 3.5401 207.796 3.39266 208.528 3.24076C224.171 0.255398 239.807 -0.374773 255.687 -0.312464Z" fill="#2196F3"/>
<path d="M130.396 111.839C131.04 111.834 131.684 111.829 132.348 111.824C134.478 111.809 136.608 111.802 138.738 111.797C140.222 111.791 141.705 111.785 143.189 111.78C146.3 111.769 149.411 111.763 152.522 111.76C156.5 111.754 160.478 111.73 164.456 111.702C167.521 111.683 170.586 111.678 173.651 111.676C175.117 111.673 176.583 111.665 178.049 111.652C180.105 111.635 182.16 111.637 184.216 111.644C185.384 111.64 186.552 111.636 187.755 111.633C192.072 112.121 195.454 113.556 198.645 116.535C201.858 120.737 203.103 122.949 203.43 128.18C203.501 129.243 203.572 130.306 203.645 131.402C203.721 132.548 203.797 133.694 203.875 134.875C205.639 158.475 209.473 180.288 219.754 201.914C222.488 207.781 222.968 212.599 222 219C217.587 229.832 200.996 234.431 191 239C197.125 253.269 207.398 265.792 218 277C219.193 278.37 220.381 279.745 221.562 281.125C228.396 288.928 235.871 295.569 244 302C245.012 302.817 246.024 303.635 247.066 304.477C254.949 310.764 263.256 315.993 272 321C274.243 318.194 275.821 315.474 277.27 312.191C277.891 310.823 277.891 310.823 278.525 309.428C279.38 307.525 280.226 305.619 281.064 303.709C283.97 297.365 286.595 293.203 293 290C301.523 288.33 308.215 291.476 315.81 294.864C322.737 297.951 329.642 300.146 337 302C338.874 302.522 338.874 302.522 340.785 303.055C352.277 306.204 363.811 307.691 375.707 308.234C376.47 308.27 377.232 308.306 378.018 308.343C379.459 308.404 380.901 308.452 382.344 308.483C387.633 308.684 391.724 309.875 395.645 313.535C399.289 318.301 400.127 320.391 400.161 326.374C400.166 327.028 400.171 327.682 400.176 328.356C400.191 330.523 400.198 332.691 400.203 334.859C400.209 336.367 400.215 337.874 400.22 339.381C400.231 342.546 400.237 345.71 400.24 348.874C400.246 352.92 400.27 356.966 400.298 361.013C400.317 364.128 400.322 367.244 400.324 370.36C400.327 371.851 400.335 373.342 400.348 374.833C400.365 376.925 400.363 379.016 400.356 381.108C400.36 382.297 400.364 383.486 400.367 384.71C399.883 389.044 398.45 392.41 395.5 395.645C391.452 398.796 388.696 400.125 383.605 400.133C382.74 400.135 381.875 400.137 380.983 400.14C380.061 400.135 379.138 400.13 378.188 400.125C377.233 400.12 376.278 400.115 375.294 400.11C337.02 399.787 299.278 389.885 265 373C264.223 372.623 263.446 372.246 262.645 371.857C244.058 362.766 226.9 351.216 211 338C210.433 337.534 209.865 337.068 209.281 336.588C196.26 325.867 184.424 314.281 174 301C173.06 299.859 172.117 298.719 171.172 297.582C140.503 260.447 120.691 213.596 114 166C113.897 165.276 113.794 164.552 113.688 163.806C112.364 154.114 111.789 144.468 111.688 134.688C111.67 133.715 111.652 132.742 111.634 131.74C111.64 125.618 112.199 121.07 116.5 116.355C121.328 112.596 124.363 111.874 130.396 111.839Z" fill="#F9F9F9"/>
</g>
<defs>
<clipPath id="clip0_199_3">
<rect width="512" height="512" fill="white"/>
</clipPath>
</defs>
</svg>
