<svg width="512" height="512" viewBox="0 0 512 512" fill="none" xmlns="http://www.w3.org/2000/svg">
<g clip-path="url(#clip0_199_7)">
<path d="M331 51C331.98 51.7477 332.959 52.4954 333.969 53.2657C344.68 61.7714 355.493 71.2461 364 82C365.129 83.4077 365.129 83.4077 366.281 84.8438C386.088 109.855 404.349 141.404 408.324 173.626C408.774 176.095 408.774 176.095 410.712 177.327C411.449 177.656 412.186 177.985 412.945 178.324C414.179 178.9 414.179 178.9 415.438 179.487C416.325 179.883 417.211 180.279 418.125 180.688C431.762 187.141 443.619 195.076 455 205C455.491 205.424 455.982 205.848 456.488 206.285C463.795 212.628 470.093 219.301 476 227C476.716 227.888 477.431 228.776 478.168 229.691C493.521 249.229 503.428 271.876 509 296C509.164 296.671 509.328 297.342 509.496 298.033C515.467 323.472 513.023 351.371 507.676 376.618C506.487 382.566 505.622 388.561 504.75 394.563C504.587 395.651 504.425 396.739 504.257 397.86C502.644 408.884 501.862 419.686 501.831 430.832C501.824 432.914 501.808 434.996 501.79 437.078C501.738 442.988 501.69 448.898 501.674 454.808C501.664 458.445 501.635 462.082 501.593 465.719C501.581 467.096 501.575 468.473 501.578 469.849C501.594 483.359 501.594 483.359 497 488C493.238 490.682 490.676 491.376 486.078 491.385C484.904 491.395 483.73 491.405 482.521 491.415C481.253 491.412 479.986 491.409 478.68 491.406C477.339 491.416 475.998 491.427 474.658 491.439C470.397 491.476 466.136 491.49 461.875 491.5C436.131 491.565 410.982 492.798 385.688 498.063C338.06 507.473 290.181 502.298 248.962 475.137C243.003 471.106 237.395 466.766 232 462C231.268 461.358 231.268 461.358 230.521 460.704C220.623 451.991 212.089 442.752 204.438 432C203.9 431.245 203.363 430.49 202.809 429.712C202.314 429.003 201.819 428.293 201.309 427.563C200.863 426.924 200.418 426.286 199.959 425.629C199 424 199 424 199 422C198.085 422.02 198.085 422.02 197.151 422.04C191.123 422.112 185.339 421.724 179.375 420.875C178.453 420.747 177.53 420.62 176.58 420.488C167.329 419.15 158.165 417.367 148.989 415.601C140.146 413.904 131.308 412.344 122.375 411.188C121.519 411.076 120.663 410.965 119.782 410.85C107.602 409.36 95.441 408.857 83.184 408.801C80.812 408.789 78.4401 408.769 76.0682 408.748C69.3364 408.687 62.6046 408.632 55.8727 408.599C51.7261 408.578 47.5799 408.542 43.4335 408.498C41.8643 408.484 40.2951 408.475 38.7259 408.472C36.537 408.467 34.349 408.444 32.1602 408.417C30.919 408.408 29.6777 408.4 28.3988 408.392C23.3375 407.808 20.0925 406.211 16.6876 402.438C14.1173 398.725 13.8668 396.767 13.8265 392.266C13.813 391.059 13.7995 389.851 13.7856 388.607C13.7806 387.957 13.7755 387.307 13.7703 386.637C13.7538 384.575 13.7305 382.513 13.7054 380.451C13.6352 374.583 13.5761 368.716 13.5233 362.849C13.1881 326.568 9.97652 291.449 3.01865 255.796C2.77147 254.52 2.52429 253.244 2.26962 251.93C2.04895 250.808 1.82828 249.686 1.60092 248.531C0.385023 241.386 -0.161243 234.352 -0.203033 227.109C-0.210048 226.291 -0.217047 225.472 -0.224274 224.629C-0.241675 222.003 -0.248141 219.376 -0.249908 216.75C-0.250583 215.853 -0.251258 214.955 -0.251953 214.031C-0.236135 200.802 0.148545 187.967 3.00009 175C3.1717 174.188 3.3433 173.377 3.52011 172.541C11.5858 135.211 28.9346 101.001 55.5728 73.4786C57.0565 71.9416 58.5178 70.385 59.9806 68.8282C72.5828 55.6194 87.2717 45.1719 103 36C103.589 35.6514 104.178 35.3027 104.785 34.9434C174.443 -5.88717 267.559 2.48216 331 51Z" fill="#48D0F8"/>
<path d="M410 178C415.135 178.41 419.473 181.067 423.938 183.438C425.199 184.106 425.199 184.106 426.486 184.789C437.265 190.626 446.816 197.554 455.781 205.938C457.757 207.774 459.79 209.478 461.875 211.188C472.455 220.466 480.62 232.121 488 244C488.699 245.107 489.397 246.215 490.117 247.355C499.152 262.349 505.071 278.989 509 296C509.164 296.671 509.327 297.342 509.496 298.033C515.467 323.472 513.023 351.371 507.676 376.618C506.487 382.566 505.622 388.561 504.75 394.562C504.587 395.651 504.425 396.739 504.257 397.86C502.644 408.884 501.862 419.686 501.831 430.832C501.824 432.914 501.808 434.996 501.79 437.078C501.738 442.988 501.689 448.898 501.674 454.808C501.664 458.445 501.635 462.082 501.593 465.719C501.58 467.096 501.575 468.473 501.578 469.849C501.594 483.359 501.594 483.359 497 488C493.237 490.682 490.676 491.376 486.078 491.385C484.904 491.395 483.73 491.405 482.521 491.415C481.253 491.412 479.986 491.409 478.68 491.406C477.339 491.416 475.998 491.426 474.658 491.439C470.397 491.476 466.136 491.489 461.875 491.5C436.131 491.565 410.982 492.798 385.688 498.062C338.06 507.473 290.18 502.298 248.962 475.137C243.003 471.106 237.395 466.766 232 462C231.268 461.358 231.268 461.358 230.521 460.704C220.623 451.991 212.089 442.752 204.438 432C203.9 431.245 203.362 430.49 202.809 429.712C202.314 429.003 201.819 428.293 201.309 427.562C200.863 426.924 200.418 426.286 199.959 425.629C199 424 199 424 199 422C199.872 421.978 199.872 421.978 200.762 421.956C260.065 420.314 314.083 400.338 355.934 357.254C359.836 352.998 363.455 348.556 367 344C367.42 343.467 367.84 342.934 368.273 342.385C387.405 317.953 399.831 289.819 406.812 259.688C407.007 258.854 407.202 258.02 407.403 257.162C410.386 243.572 411.346 230.12 411.25 216.25C411.249 215.517 411.247 214.784 411.246 214.028C411.221 203.359 410.712 192.869 409.34 182.277C409.172 180.655 409.172 180.655 409 179C409.33 178.67 409.66 178.34 410 178Z" fill="#82E5B4"/>
<path d="M126 199C133.701 204.243 138.948 211.861 141 221C142.025 229.756 140.197 238.223 135.27 245.586C129.276 252.788 122.137 257.417 112.75 258.309C102.591 258.658 94.7904 256.991 86.8789 250.172C81.191 244.154 76.7757 236.977 76.5 228.562C77.0689 217.964 79.9588 209.503 87.8867 202.281C98.9105 193.445 113.513 191.66 126 199Z" fill="#FDFEFE"/>
<path d="M218.512 200.695C224.993 205.987 228.382 212.147 231 220C231.902 229.578 230.695 237.852 225.012 245.77C218.804 253.093 212.433 257.389 202.75 258.309C192.549 258.659 184.827 256.94 176.844 250.172C170.255 243.304 167.794 235.917 167.5 226.5C167.771 217.551 169.989 210.229 176.16 203.602C188.35 192.99 204.925 191.525 218.512 200.695Z" fill="#FDFEFE"/>
<path d="M303.438 197.437C311.519 202.082 317.288 208.48 320.379 217.328C322.615 226.946 320.925 235.488 316.375 244.062C310.851 250.895 304.918 256.61 296 258C287.487 258.781 280.359 258.575 273 254C272.291 253.564 271.582 253.129 270.852 252.68C264.381 248.278 260.429 242.416 258 235C257.171 225.479 257.071 216.27 262.957 208.375C267.178 203.428 271.094 199.726 277 197C277.746 196.649 278.493 196.299 279.262 195.937C287.04 193.274 296.05 194.045 303.438 197.437Z" fill="#FEFEFE"/>
</g>
<defs>
<clipPath id="clip0_199_7">
<rect width="512" height="512" fill="white"/>
</clipPath>
</defs>
</svg>
